<?xml version="1.0" encoding="UTF-8"?>
<svg width="312px" height="343px" viewBox="0 0 312 343" version="1.1" xmlns="http://www.w3.org/2000/svg" xmlns:xlink="http://www.w3.org/1999/xlink">
    <title>test</title>
    <defs>
        <linearGradient x1="7.08480126%" y1="12.1895751%" x2="96.0739181%" y2="87.5476396%" id="linearGradient-1">
            <stop stop-color="#8565FF" offset="0%"></stop>
            <stop stop-color="#489DFD" offset="100%"></stop>
        </linearGradient>
        <linearGradient x1="2.86338895%" y1="12.1895751%" x2="100.606042%" y2="87.5476396%" id="linearGradient-2">
            <stop stop-color="#8565FF" offset="0%"></stop>
            <stop stop-color="#489DFD" offset="100%"></stop>
        </linearGradient>
        <linearGradient x1="-1.84867688%" y1="16.3125006%" x2="105.664934%" y2="83.4533687%" id="linearGradient-3">
            <stop stop-color="#8565FF" offset="0%"></stop>
            <stop stop-color="#489DFD" offset="100%"></stop>
        </linearGradient>
        <linearGradient x1="-0.546240841%" y1="12.1895751%" x2="104.266633%" y2="87.5476396%" id="linearGradient-4">
            <stop stop-color="#8565FF" offset="0%"></stop>
            <stop stop-color="#489DFD" offset="100%"></stop>
        </linearGradient>
        <linearGradient x1="-1.84867688%" y1="15.2971343%" x2="105.664934%" y2="84.4616782%" id="linearGradient-5">
            <stop stop-color="#8565FF" offset="0%"></stop>
            <stop stop-color="#489DFD" offset="100%"></stop>
        </linearGradient>
        <linearGradient x1="0.916080911%" y1="12.1895751%" x2="102.696679%" y2="87.5476396%" id="linearGradient-6">
            <stop stop-color="#8565FF" offset="0%"></stop>
            <stop stop-color="#489DFD" offset="100%"></stop>
        </linearGradient>
        <linearGradient x1="-1.84867688%" y1="12.4206431%" x2="105.664934%" y2="87.3181776%" id="linearGradient-7">
            <stop stop-color="#8565FF" offset="0%"></stop>
            <stop stop-color="#489DFD" offset="100%"></stop>
        </linearGradient>
        <linearGradient x1="-1.81627675%" y1="12.1895751%" x2="105.630149%" y2="87.5476396%" id="linearGradient-8">
            <stop stop-color="#8565FF" offset="0%"></stop>
            <stop stop-color="#489DFD" offset="100%"></stop>
        </linearGradient>
        <linearGradient x1="-1.84867688%" y1="13.1861241%" x2="105.664934%" y2="86.5580167%" id="linearGradient-9">
            <stop stop-color="#8565FF" offset="0%"></stop>
            <stop stop-color="#489DFD" offset="100%"></stop>
        </linearGradient>
        <linearGradient x1="-1.84867688%" y1="13.3024034%" x2="105.664934%" y2="86.4425455%" id="linearGradient-10">
            <stop stop-color="#8565FF" offset="0%"></stop>
            <stop stop-color="#489DFD" offset="100%"></stop>
        </linearGradient>
        <linearGradient x1="2.94134298%" y1="12.1895751%" x2="100.52235%" y2="87.5476396%" id="linearGradient-11">
            <stop stop-color="#8565FF" offset="0%"></stop>
            <stop stop-color="#489DFD" offset="100%"></stop>
        </linearGradient>
        <linearGradient x1="-1.84867688%" y1="16.4159095%" x2="105.664934%" y2="83.3506786%" id="linearGradient-12">
            <stop stop-color="#8565FF" offset="0%"></stop>
            <stop stop-color="#489DFD" offset="100%"></stop>
        </linearGradient>
        <linearGradient x1="-1.84867688%" y1="14.7672803%" x2="105.664934%" y2="84.9878497%" id="linearGradient-13">
            <stop stop-color="#8565FF" offset="0%"></stop>
            <stop stop-color="#489DFD" offset="100%"></stop>
        </linearGradient>
    </defs>
    <g id="Page-1" stroke="none" stroke-width="1" fill="none" fill-rule="evenodd">
        <g id="test" transform="translate(0.000000, -0.000000)" fill-rule="nonzero">
            <g id="Group">
                <path d="M149.462894,341.1 C147.762894,340.1 145.562894,338 144.562894,336.5 C142.662894,333.5 142.662894,328.7 144.962894,315 C145.462894,312 145.862894,302.6 145.862894,294.2 C145.962894,279.5 145.862894,278.8 143.662894,276.6 C141.862894,274.8 141.462894,273.5 141.762894,270.6 C142.362894,265.5 141.362894,262.6 137.862894,259.1 C135.262894,256.4 134.062894,256 129.462894,256 C125.162894,256 123.562894,256.5 120.962894,258.7 C119.262894,260.1 117.362894,262.4 116.862894,263.7 C116.362894,265 114.962894,266.4 113.562894,266.9 C109.962894,268.3 107.562894,272.4 101.362894,287.6 C94.9628938,303.4 93.8628938,305.3 90.3628938,306.8 C87.0628938,308.4 81.0628938,308.3 77.9628938,306.7 C74.2628938,304.9 70.9628938,299.3 70.9628938,295 C70.9628938,291 72.0628938,289.1 83.6628938,274.7 C87.5628938,269.9 91.7628938,264 93.0628938,261.5 C95.3628938,257.2 95.3628938,257.1 93.4628938,255.1 C91.6628938,253 91.6628938,252.9 93.8628938,250.6 C98.4628938,245.7 97.1628938,235.2 91.5628938,231.5 C87.8628938,229.1 80.2628938,229.3 75.9628938,231.9 C74.0628938,233 71.5628938,234 70.4628938,234 C64.9628938,234 42.8628938,247 30.6628938,257.4 C22.9628938,264 18.4628938,265.3 13.2628938,262.6 C2.46289385,257.1 2.16289385,244.5 12.7628938,239.1 C14.8628938,238.1 20.5628938,235.6 25.5628938,233.7 C37.4628938,229.1 42.9628938,226.3 51.6628938,220.1 C56.3628938,216.8 58.9628938,214.3 59.1628938,212.8 C59.3628938,211.3 60.7628938,209.9 62.9628938,208.9 C68.0628938,206.5 70.1628938,203.7 70.7628938,198.4 C71.7628938,189.6 66.2628938,184 56.6628938,184 C53.5628938,184 51.9628938,183.5 51.5628938,182.5 C50.8628938,180.5 37.4628938,180.5 25.9628938,182.5 C21.2628938,183.3 15.0628938,184 12.1628938,184 C7.36289385,184 6.36289385,183.6 3.26289385,180.5 C-0.137106151,177.1 -0.237106151,176.7 0.162893849,170.9 C0.562893849,165.8 1.06289385,164.4 3.76289385,161.7 C6.56289385,158.9 7.66289385,158.5 12.2628938,158.5 C15.0628938,158.5 21.7628938,159.3 26.9628938,160.2 C32.1628938,161.1 39.7628938,162.1 43.7628938,162.4 L50.9628938,163 L51.5628938,160 C52.1628938,157.1 52.3628938,157 58.1628938,157 C63.6628938,157 64.4628938,156.7 67.5628938,153.6 C70.4628938,150.7 70.9628938,149.5 70.9628938,145.4 C70.9628938,139.2 68.1628938,134.4 63.3628938,132.4 C61.4628938,131.6 59.6628938,130.3 59.3628938,129.5 C57.6628938,125.3 39.8628938,114.7 23.1628938,108.1 C10.9628938,103.2 8.36289385,101.6 6.36289385,97.9 C2.06289385,89.4 8.36289385,79.2 18.2628938,78.8 C22.3628938,78.7 25.2628938,80.2 31.0628938,85.5 C38.7628938,92.6 47.7628938,98.8 58.1628938,104 C68.0628938,109 71.2628938,109.9 72.4628938,108 C72.7628938,107.5 74.6628938,108.2 76.6628938,109.5 C80.6628938,112.3 87.0628938,112.8 91.4628938,110.8 C92.8628938,110.2 94.9628938,108.1 96.0628938,106.3 C98.7628938,101.9 98.2628938,95 94.9628938,91.5 C93.2628938,89.7 92.9628938,88.7 93.7628938,87.4 C95.5628938,84.3 92.1628938,78.4 80.2628938,63.8 C70.3628938,51.5 69.0628938,47.6 72.9628938,41.3 C76.5628938,35.3 83.1628938,33.2 90.1628938,35.9 C93.8628938,37.3 95.0628938,39.5 101.462894,55.5 C104.462894,63.1 107.962894,70.8 109.062894,72.7 C110.962894,75.7 111.562894,76 114.062894,75.5 C116.362894,75 117.062894,75.2 117.562894,76.7 C118.962894,81 120.362894,82.9 123.962894,84.9 C128.362894,87.4 131.962894,87.6 135.962894,85.5 C140.862894,83 142.962894,79.3 142.962894,73.5 C142.962894,70.6 143.662894,66.9 144.462894,65.4 C146.262894,62 146.462894,40.8 144.962894,29.5 C142.762894,13.8 142.662894,9.5 144.362894,6.2 C146.462894,2.2 150.662894,0 156.462894,0 C160.162894,0 161.662894,0.6 164.562894,3.3 C169.262894,7.6 169.662894,11.5 167.062894,26.7 C163.862894,45 164.562894,65.1 168.462894,67.3 C169.462894,67.8 169.962894,69.7 169.962894,73.1 C169.962894,75.8 170.662894,79.4 171.462894,81 C175.862894,89.6 190.762894,88.6 194.462894,79.5 C195.462894,77.3 196.762894,76 198.162894,75.8 C201.062894,75.4 205.162894,68 211.562894,51.9 C216.462894,39.4 218.762894,36.3 224.162894,35.1 C234.162894,32.9 242.462894,41 239.862894,50.4 C239.362894,52.3 234.962894,58.9 230.062894,65 C225.262894,71.1 220.062894,78.2 218.662894,80.9 C216.062894,85.7 215.962894,85.7 217.962894,87.5 C219.862894,89.3 219.862894,89.3 217.462894,92.2 C214.462894,95.7 213.962894,104.1 216.562894,107.8 C220.262894,113.2 230.362894,114.8 235.362894,110.9 C236.862894,109.7 239.562894,108.6 241.362894,108.5 C246.362894,108.2 263.862894,98.5 274.962894,89.9 C286.662894,80.8 289.762894,79 293.962894,79 C302.362894,79 308.262894,87.4 305.962894,96.1 C304.662894,100.7 301.962894,102.8 291.462894,106.8 C279.562894,111.3 274.262894,113.8 266.562894,118.3 C258.862894,122.7 251.962894,128.5 251.962894,130.6 C251.962894,131.3 250.162894,132.9 247.862894,134 C242.862894,136.6 239.462894,143.2 240.462894,148.3 C241.862894,154.9 249.562894,159.9 256.362894,158.6 C259.262894,158 259.762894,158.3 260.262894,160.1 C260.862894,162.2 261.162894,162.3 271.162894,161.6 C276.862894,161.2 285.762894,160.1 290.962894,159.1 C300.262894,157.3 300.562894,157.3 304.262894,159.2 C309.162894,161.6 311.962894,166.3 311.962894,171.9 C311.962894,175.6 311.362894,176.8 308.062894,180.1 C304.562894,183.7 303.762894,184 298.862894,184 C295.862894,184 289.962894,183.3 285.662894,182.5 C281.362894,181.7 273.962894,181 269.362894,181 C261.362894,181 260.862894,181.1 259.962894,183.4 C259.162894,185.5 258.662894,185.8 255.162894,185.3 C240.962894,183.4 234.262894,203 246.962894,209.5 C248.662894,210.4 251.762894,212.8 253.862894,214.9 C259.562894,220.6 273.262894,228.4 288.162894,234.5 C303.962894,241 305.962894,242.7 305.962894,250.4 C305.962894,256.3 303.862894,260 298.962894,262.5 C292.762894,265.7 289.462894,264.4 275.962894,253.5 C267.562894,246.8 262.262894,243.3 252.662894,238 C246.462894,234.6 244.162894,233.9 241.162894,234.2 C238.562894,234.5 236.662894,234.1 234.862894,232.8 C228.862894,228.3 219.162894,229.9 215.662894,235.9 C212.762894,240.8 213.862894,249.8 217.662894,252.7 C218.962894,253.7 219.062894,254.2 217.962894,255.5 C216.962894,256.7 216.962894,257.6 218.062894,260.2 C219.462894,263.7 228.162894,275.6 235.262894,283.9 C239.462894,288.8 239.962894,289.9 239.962894,294.3 C239.962894,303.6 234.562894,308.5 224.762894,308.1 C220.162894,307.9 216.362894,303.7 213.362894,295.2 C211.862894,291 208.462894,282.8 205.862894,277.1 C201.062894,266.9 200.962894,266.8 197.962894,267.2 C195.262894,267.6 194.662894,267.3 193.462894,264.3 C190.862894,258.2 187.762894,256 181.362894,256 C176.162894,256 175.462894,256.3 172.362894,259.6 C169.562894,262.5 168.962894,263.9 168.962894,267.6 C168.962894,270.1 168.262894,274.4 167.362894,277.1 C165.962894,281.2 165.762894,285 166.262894,298.8 C166.562894,308 167.362894,319.2 168.062894,323.7 C169.262894,331.1 169.162894,332.3 167.662894,335.5 C164.462894,342.3 155.762894,345 149.462894,341.1 Z" id="pL3GVGQhb" fill="url(#linearGradient-1)"></path>
                <path d="M122.862894,275.1 C119.062894,271.2 118.962894,266.4 122.562894,262.1 C125.462894,258.6 129.262894,258.1 133.862894,260.5 C137.162894,262.1 137.962894,263.8 137.962894,268.5 C137.962894,273.2 137.162894,274.9 133.862894,276.5 C129.562894,278.8 126.162894,278.3 122.862894,275.1 Z" id="p17U6DCVSK" fill="url(#linearGradient-2)"></path>
                <path d="M175.062894,275.3 C170.762894,271.3 170.562894,266.3 174.462894,262.5 C177.962894,258.9 185.062894,259 188.462894,262.6 C191.962894,266.4 191.862894,271.3 188.062894,275.1 C184.062894,279 179.162894,279.1 175.062894,275.3 Z" id="pFlC315BR" fill="url(#linearGradient-3)"></path>
                <path d="M81.2628938,250.8 C77.2628938,249.8 74.9628938,246.6 74.9628938,242.2 C74.9628938,237.6 76.5628938,235.1 80.5628938,233.4 C88.0628938,230.3 95.7628938,237.8 92.6628938,245.3 C90.3628938,250.6 86.9628938,252.3 81.2628938,250.8 Z" id="p3oeoWQ7Z" fill="url(#linearGradient-4)"></path>
                <path d="M219.862894,249.1 C214.862894,244.1 216.562894,237.3 223.562894,234.4 C228.362894,232.4 233.462894,234.6 235.462894,239.5 C239.562894,249.1 227.462894,256.6 219.862894,249.1 Z" id="pFqcOpDtr" fill="url(#linearGradient-5)"></path>
                <path d="M246.462894,204.5 C244.762894,202.8 243.962894,201 243.962894,198.5 C243.962894,193.6 245.462894,191.1 249.562894,189.4 C252.462894,188.2 253.462894,188.2 256.362894,189.4 C260.462894,191.1 261.962894,193.6 261.962894,198.5 C261.962894,203.6 258.362894,207 252.962894,207 C249.962894,207 248.262894,206.4 246.462894,204.5 Z" id="pae54laVS" fill="url(#linearGradient-6)"></path>
                <path d="M51.4628938,203.5 C48.5628938,200.7 48.0628938,194.7 50.4628938,191.3 C52.4628938,188.5 57.9628938,186.7 61.0628938,187.9 C67.7628938,190.4 69.7628938,199.2 64.6628938,203.6 C60.7628938,206.9 54.7628938,206.9 51.4628938,203.5 Z" id="p15t59Hx7E" fill="url(#linearGradient-7)"></path>
                <path d="M55.2628938,153.5 C48.4628938,150.6 46.8628938,143 51.8628938,137.9 C60.0628938,129.7 73.1628938,141.1 65.9628938,150.3 C63.1628938,153.9 59.0628938,155.1 55.2628938,153.5 Z" id="p116ionZVs" fill="url(#linearGradient-8)"></path>
                <path d="M246.462894,151.8 C244.162894,149.1 243.862894,147.9 244.262894,144.7 C245.062894,139.1 247.762894,136.7 253.462894,136.7 C259.162894,136.7 261.862894,139.1 262.662894,144.8 C263.162894,148.4 262.862894,149.3 260.162894,152 C255.762894,156.3 250.162894,156.3 246.462894,151.8 Z" id="p10Xnjr2Pm" fill="url(#linearGradient-9)"></path>
                <path d="M220.862894,107.1 C217.562894,103.8 217.162894,100.4 219.462894,96 C223.262894,88.7 233.162894,89.5 236.462894,97.3 C240.362894,106.5 228.062894,114.2 220.862894,107.1 Z" id="ptgsWawgi" fill="url(#linearGradient-10)"></path>
                <path d="M78.4628938,106.5 C76.5628938,104.7 75.9628938,103 75.9628938,99.8 C76.0628938,95.2 77.1628938,93 80.6628938,91.2 C86.7628938,87.9 93.9628938,92.6 93.9628938,99.8 C93.9628938,107.7 83.9628938,112.1 78.4628938,106.5 Z" id="pHRt9KPRx" fill="url(#linearGradient-11)"></path>
                <path d="M124.062894,80.4 C117.562894,75 121.262894,65 129.862894,65 C135.162894,65 136.762894,65.7 138.462894,69.1 C140.762894,73.4 140.262894,76.8 137.062894,80.1 C133.162894,83.9 128.362894,84 124.062894,80.4 Z" id="p13nVu1F9u" fill="url(#linearGradient-12)"></path>
                <path d="M175.462894,80.5 C170.862894,76 172.862894,68.2 179.162894,65.6 C188.562894,61.6 196.362894,72.8 189.262894,80.2 C185.662894,84 179.062894,84.2 175.462894,80.5 Z" id="p5ltCidgJ" fill="url(#linearGradient-13)"></path>
            </g>
            <g id="Group" transform="translate(74.462894, 89.895612)" fill="#FFFFFF">
                <path d="M76,161.904388 C65.3,156.004388 72.3,140.504388 83.6,145.104388 C86.5,146.404388 89.5,150.604388 89.5,153.504388 C89.5,160.104388 81.6,165.004388 76,161.904388 Z M82.3,160.004388 C88.4,157.904388 88.6,149.604388 82.6,147.104388 C76.7,144.704388 71.1,150.304388 73.5,156.204388 C74.1,157.604388 75.6,159.304388 76.8,159.904388 C78,160.504388 79,161.004388 79.1,161.004388 C79.2,161.104388 80.6,160.604388 82.3,160.004388 Z" id="pEWSZZKNC"></path>
                <path d="M109.8,150.604388 C106.8,147.604388 106.3,146.604388 106.9,143.804388 C107.7,139.504388 112.6,135.104388 116.6,135.104388 C121.1,135.104388 125.5,139.804388 125.5,144.604388 C125.5,147.304388 124.7,149.004388 122.6,151.204388 C118.4,155.304388 114.3,155.104388 109.8,150.604388 Z M121.8,148.904388 C127.1,142.704388 118.7,134.004388 112.2,139.104388 C107.7,142.704388 108.9,149.404388 114.5,151.404388 C116.8,152.204388 119.8,151.204388 121.8,148.904388 Z" id="pwb5zvXqa"></path>
                <path d="M41.8,152.404388 C38.6,151.804388 34.5,146.504388 34.5,142.904388 C34.5,141.004388 35.5,139.004388 37.4,137.004388 C41.5,133.004388 46.5,133.004388 50.6,137.004388 C54.4,140.804388 54.5,145.004388 50.8,149.004388 C47.8,152.104388 45.4,153.104388 41.8,152.404388 Z M49,148.104388 C51.6,145.204388 51.4,140.204388 48.6,137.904388 C45.4,135.404388 41.9,135.604388 39,138.604388 C36,141.604388 35.9,144.004388 38.6,147.504388 C41.2,150.804388 46.3,151.104388 49,148.104388 Z" id="pEoLet6Gw"></path>
                <path d="M63.9,127.204388 C62.1,126.104388 60.1,123.604388 59.1,121.104388 C53.8,107.704388 70.9,96.9043878 80.4,107.604388 C84.4,112.204388 85.2,115.504388 83.4,120.504388 C80.7,128.204388 71,131.504388 63.9,127.204388 Z M77.6,123.204388 C85,115.804388 77.9,103.804388 68.1,107.104388 C63.9,108.504388 61.5,111.904388 61.5,116.604388 C61.5,121.704388 65.9,126.104388 71,126.104388 C73.7,126.104388 75.4,125.304388 77.6,123.204388 Z" id="pxQUN2vX1"></path>
                <path d="M138.3,126.604388 C135,124.804388 133.1,119.404388 134.4,115.904388 C135.6,112.804388 140.1,109.104388 142.7,109.104388 C145.5,109.104388 150.3,111.804388 151.5,114.004388 C153.4,117.704388 152.7,122.104388 149.6,125.204388 C146.3,128.404388 142.6,128.904388 138.3,126.604388 Z M148.8,122.904388 C152.6,118.404388 149.4,112.104388 143.3,112.104388 C139.1,112.104388 136.5,114.604388 136.5,118.704388 C136.5,125.304388 144.4,128.104388 148.8,122.904388 Z" id="pepDe0UHe"></path>
                <path d="M15,125.204388 C8.6,122.504388 6.8,113.804388 11.8,109.504388 C15.8,106.104388 20.8,106.304388 24.6,110.004388 C28.4,113.804388 28.5,118.004388 24.8,122.004388 C21.7,125.304388 18.1,126.504388 15,125.204388 Z M23,121.104388 C25.6,118.204388 25.4,113.204388 22.6,110.904388 C17.9,107.104388 11.2,110.104388 11.2,115.904388 C11.2,120.104388 14,123.104388 18,123.104388 C19.9,123.104388 21.9,122.304388 23,121.104388 Z" id="pOiqoeTB1"></path>
                <path d="M100.6,119.404388 C93.4,115.804388 91.2,106.004388 96.2,100.004388 C102.1,93.0043878 110.4,92.9043878 116.4,99.6043878 C121.9,106.004388 119.9,115.804388 112.2,119.404388 C107.8,121.504388 104.9,121.504388 100.6,119.404388 Z M113.6,114.204388 C116.9,110.904388 117.3,107.504388 115,103.104388 C113.2,99.6043878 110.7,98.1043878 106.5,98.1043878 C102.3,98.1043878 99.8,99.6043878 97.9,103.304388 C92.8,113.204388 105.6,122.104388 113.6,114.204388 Z" id="p13pD4KUgu"></path>
                <path d="M38.8,101.004388 C30.8,95.9043878 31.2,82.9043878 39.6,78.5043878 C46.4,75.1043878 54.5,77.7043878 57.6,84.4043878 C60,89.7043878 59.9,90.5043878 57.5,95.7043878 C54,102.704388 45.4,105.204388 38.8,101.004388 Z M53.3,96.6043878 C57.9,91.2043878 55,81.8043878 48.2,80.6043878 C39.3,78.9043878 33.1,88.2043878 38,95.7043878 C41.3,100.804388 49.2,101.204388 53.3,96.6043878 Z" id="pdDeyQ4J"></path>
                <path d="M147.4,89.2043878 C142.1,83.9043878 144.5,75.4043878 151.8,73.6043878 C157.7,72.1043878 164.7,79.8043878 162.6,85.4043878 C159.9,92.4043878 152.5,94.3043878 147.4,89.2043878 Z M157.9,88.0043878 C162.9,84.0043878 160.3,76.1043878 153.9,76.1043878 C147,76.1043878 143.8,83.9043878 149.1,88.0043878 C150.6,89.2043878 152.5,90.1043878 153.5,90.1043878 C154.5,90.1043878 156.4,89.2043878 157.9,88.0043878 Z" id="pczZHVyuB"></path>
                <path d="M2.8,86.7043878 C0.6,84.8043878 0,83.5043878 0,80.2043878 C0,71.4043878 9.9,67.5043878 15.7,74.0043878 C19.3,78.0043878 19.3,82.0043878 15.9,86.0043878 C12.6,90.0043878 7,90.3043878 2.8,86.7043878 Z M13.3,85.4043878 C16.5,82.7043878 17,79.0043878 14.5,75.8043878 C10.2,70.4043878 2.2,73.3043878 2.2,80.3043878 C2.2,86.0043878 8.9,89.1043878 13.3,85.4043878 Z" id="pireHYb7d"></path>
                <path d="M75.4,86.2043878 C73.4,84.2043878 72.5,82.3043878 72.5,80.1043878 C72.5,76.4043878 77.2,71.1043878 80.5,71.1043878 C84,71.1043878 88.1,73.8043878 89.5,77.1043878 C90.6,79.8043878 90.6,80.8043878 89.2,83.7043878 C86.3,89.6043878 80,90.8043878 75.4,86.2043878 Z M86.4,84.6043878 C87.2,83.8043878 87.8,81.8043878 87.8,80.1043878 C87.8,74.0043878 81.3,71.2043878 77.1,75.5043878 C75.6,76.9043878 74.5,79.0043878 74.5,80.1043878 C74.5,81.3043878 75.6,83.3043878 77.1,84.7043878 C79.8,87.5043878 83.5,87.4043878 86.4,84.6043878 Z" id="pWIMNxdap"></path>
                <path d="M112.5,85.3043878 C104.4,81.7043878 101.3,73.2043878 105.5,66.4043878 C109.1,60.3043878 115.7,58.3043878 122.4,61.1043878 C129.1,63.8043878 131.7,74.2043878 127.4,80.3043878 C124.1,84.9043878 117,87.3043878 112.5,85.3043878 Z M123.8,79.0043878 C131.3,71.0043878 122.2,59.6043878 112.1,64.2043878 C109.8,65.3043878 106.5,70.4043878 106.5,73.1043878 C106.5,75.8043878 109.9,80.4043878 112.8,81.6043878 C117,83.4043878 120.4,82.6043878 123.8,79.0043878 Z" id="p15CUGkKMF"></path>
                <path d="M47.4,64.2043878 C43.9,60.7043878 43.5,59.8043878 43.5,55.2043878 C43.5,50.8043878 44,49.6043878 46.8,46.5043878 C49.6,43.4043878 50.9,42.8043878 55.1,42.4043878 C61.1,41.9043878 65.4,44.2043878 67.8,49.4043878 C69.9,53.7043878 69.9,56.1043878 68.1,60.6043878 C66.2,65.1043878 61.2,68.1043878 55.6,68.1043878 C51.9,68.1043878 50.7,67.5043878 47.4,64.2043878 Z M63.3,61.7043878 C68.6,56.5043878 65.4,46.9043878 58,45.5043878 C54.3,44.8043878 49.1,47.1043878 47.5,50.0043878 C46.2,52.5043878 46.2,57.7043878 47.5,60.1043878 C50.3,65.4043878 58.8,66.2043878 63.3,61.7043878 Z" id="pgh8skMIv"></path>
                <path d="M88,59.0043878 C77.2,55.9043878 75.4,40.3043878 85.1,35.0043878 C88.7,33.1043878 95.5,33.4043878 98.8,35.6043878 C107.4,41.2043878 106,54.7043878 96.5,58.5043878 C92,60.3043878 92.2,60.3043878 88,59.0043878 Z M98,53.8043878 C99.8,52.3043878 100.8,50.2043878 101.2,47.4043878 C101.7,43.7043878 101.4,42.9043878 98.7,40.1043878 C90.7,32.1043878 77.7,40.9043878 82.9,50.9043878 C84.9,54.8043878 87,56.0043878 91.7,56.1043878 C94.1,56.1043878 96.3,55.3043878 98,53.8043878 Z" id="pzutCrHPo"></path>
                <path d="M138.4,53.2043878 C136.3,51.0043878 135.5,49.3043878 135.5,46.6043878 C135.5,41.8043878 139.9,37.1043878 144.4,37.1043878 C149.1,37.1043878 153.9,41.9043878 153.9,46.6043878 C153.9,49.6043878 153.2,51.0043878 150.7,53.2043878 C146.4,57.1043878 142.3,57.0043878 138.4,53.2043878 Z M149.8,51.3043878 C152.5,48.9043878 151.7,43.3043878 148.4,40.8043878 C143.1,37.0043878 135.9,42.6043878 138,48.8043878 C139.8,53.9043878 145.5,55.1043878 149.8,51.3043878 Z" id="ppNMS8ON6"></path>
                <path d="M13,50.6043878 C9.5,47.2043878 9.5,41.0043878 13,37.6043878 C16.4,34.1043878 22.3,34.2043878 25.9,37.7043878 C31.8,43.6043878 27.9,53.1043878 19.5,53.1043878 C16.5,53.1043878 14.8,52.5043878 13,50.6043878 Z M24.3,49.1043878 C27.1,46.5043878 27.1,42.4043878 24.3,39.4043878 C20,34.8043878 12.5,37.8043878 12.5,44.1043878 C12.5,50.3043878 19.8,53.3043878 24.3,49.1043878 Z" id="p9nvEjOd4"></path>
                <path d="M112.4,26.2043878 C106.4,20.2043878 110.1,10.6043878 118.4,10.6043878 C127.3,10.6043878 131.2,20.4043878 124.6,26.3043878 C120.4,30.1043878 116.3,30.0043878 112.4,26.2043878 Z M122.9,25.0043878 C128.3,20.8043878 125.2,12.7043878 118.3,12.9043878 C110.9,13.1043878 109,23.3043878 115.8,26.1043878 C119.1,27.4043878 120,27.3043878 122.9,25.0043878 Z" id="p12ozHcAwl"></path>
                <path d="M42.7,26.6043878 C36.2,23.8043878 35.2,14.5043878 41,10.7043878 C47.2,6.70438779 55.5,10.8043878 55.5,17.8043878 C55.5,22.5043878 53.9,25.0043878 50,26.7043878 C46,28.3043878 46.8,28.4043878 42.7,26.6043878 Z M51.5,23.1043878 C54.1,20.5043878 54,16.3043878 51.3,13.4043878 C48.6,10.5043878 44.8,10.5043878 41.8,13.3043878 C37.2,17.6043878 40.2,25.1043878 46.5,25.1043878 C48.2,25.1043878 50.4,24.2043878 51.5,23.1043878 Z" id="pxNBu5Axj"></path>
                <path d="M78.8,17.6043878 C72.7,15.0043878 71.6,7.90438779 76.4,3.00438779 C81.2,-1.69561221 88,-0.795612205 91,5.10438779 C95,12.8043878 87,21.1043878 78.8,17.6043878 Z M87.7,14.4043878 C90.1,12.2043878 90.1,6.70438779 87.5,4.10438779 C84.8,1.40438779 80.9,1.60438779 78,4.60438779 C75,7.60438779 74.9,10.0043878 77.6,13.5043878 C80,16.6043878 84.8,17.0043878 87.7,14.4043878 Z" id="p32mhlIW8"></path>
            </g>
        </g>
    </g>
</svg>